<svg width="55" height="42" viewBox="0 0 55 42" fill="none" xmlns="http://www.w3.org/2000/svg">
<path d="M36.0938 22.3438C36.0938 24.623 35.1883 26.8088 33.5767 28.4204C31.9651 30.0321 29.7792 30.9375 27.5 30.9375C25.2208 30.9375 23.0349 30.0321 21.4233 28.4204C19.8117 26.8088 18.9063 24.623 18.9062 22.3438C18.9063 20.0645 19.8117 17.8787 21.4233 16.2671C23.0349 14.6554 25.2208 13.75 27.5 13.75C29.7792 13.75 31.9651 14.6554 33.5767 16.2671C35.1883 17.8787 36.0938 20.0645 36.0938 22.3438V22.3438Z" fill="#03009F"/>
<path d="M6.875 6.875C5.05164 6.875 3.30295 7.59933 2.01364 8.88864C0.724328 10.178 0 11.9266 0 13.75L0 34.375C0 36.1984 0.724328 37.947 2.01364 39.2364C3.30295 40.5257 5.05164 41.25 6.875 41.25H48.125C49.9484 41.25 51.697 40.5257 52.9864 39.2364C54.2757 37.947 55 36.1984 55 34.375V13.75C55 11.9266 54.2757 10.178 52.9864 8.88864C51.697 7.59933 49.9484 6.875 48.125 6.875H44.0963C42.273 6.87461 40.5246 6.15003 39.2356 4.86063L36.3894 2.01437C35.1004 0.724973 33.352 0.000389382 31.5287 0H23.4713C21.648 0.000389382 19.8996 0.724973 18.6106 2.01437L15.7644 4.86063C14.4754 6.15003 12.727 6.87461 10.9037 6.875H6.875ZM8.59375 13.75C8.13791 13.75 7.70074 13.5689 7.37841 13.2466C7.05608 12.9243 6.875 12.4871 6.875 12.0312C6.875 11.5754 7.05608 11.1382 7.37841 10.8159C7.70074 10.4936 8.13791 10.3125 8.59375 10.3125C9.04959 10.3125 9.48676 10.4936 9.80909 10.8159C10.1314 11.1382 10.3125 11.5754 10.3125 12.0312C10.3125 12.4871 10.1314 12.9243 9.80909 13.2466C9.48676 13.5689 9.04959 13.75 8.59375 13.75ZM39.5312 22.3438C39.5312 25.5346 38.2637 28.5948 36.0074 30.8511C33.7511 33.1074 30.6909 34.375 27.5 34.375C24.3091 34.375 21.2489 33.1074 18.9926 30.8511C16.7363 28.5948 15.4688 25.5346 15.4688 22.3438C15.4688 19.1529 16.7363 16.0927 18.9926 13.8364C21.2489 11.5801 24.3091 10.3125 27.5 10.3125C30.6909 10.3125 33.7511 11.5801 36.0074 13.8364C38.2637 16.0927 39.5312 19.1529 39.5312 22.3438V22.3438Z" fill="#03009F"/>
</svg>
