<svg width="427" height="79" viewBox="0 0 427 79" fill="none" xmlns="http://www.w3.org/2000/svg">
<g filter="url(#filter0_d)">
<path d="M142.131 68.1384L141.72 69.9094C142.037 70.0042 142.353 70.0675 142.827 70.0675C144.677 70.0675 145.515 69.0555 146.258 67.0791L148.978 59.1574H146.749L145.8 62.5253C145.61 63.2684 145.436 64.0116 145.262 64.7547H145.199C144.993 63.98 144.804 63.2368 144.582 62.5253L143.46 59.1574H141.12L144.14 66.7944L144.029 67.2056C143.823 67.8222 143.428 68.2333 142.653 68.2333C142.479 68.2333 142.274 68.1701 142.131 68.1384ZM149.621 63.0787C149.621 65.6876 151.455 67.1897 153.448 67.1897C155.424 67.1897 157.258 65.6876 157.258 63.0787C157.258 60.4697 155.424 58.9676 153.448 58.9676C151.455 58.9676 149.621 60.4697 149.621 63.0787ZM152.009 63.0787C152.009 61.7189 152.483 60.8492 153.448 60.8492C154.396 60.8492 154.886 61.7189 154.886 63.0787C154.886 64.4385 154.396 65.3081 153.448 65.3081C152.483 65.3081 152.009 64.4385 152.009 63.0787ZM158.771 64.0274C158.771 65.988 159.498 67.1897 161.206 67.1897C162.281 67.1897 163.009 66.6996 163.673 65.909H163.72L163.894 67H165.792V59.1574H163.467V64.3436C163.009 64.9603 162.661 65.2133 162.076 65.2133C161.396 65.2133 161.095 64.8496 161.095 63.727V59.1574H158.771V64.0274ZM167.837 67H170.161V62.4462C170.572 61.3868 171.3 61.0073 171.885 61.0073C172.217 61.0073 172.454 61.0548 172.739 61.1338L173.118 59.1257C172.897 59.0309 172.628 58.9676 172.185 58.9676C171.379 58.9676 170.525 59.4736 169.956 60.533H169.892L169.734 59.1574H167.837V67ZM177.552 62.2248C177.552 65.6876 178.991 67.1897 181.663 67.1897C184.336 67.1897 185.743 65.6876 185.743 62.2248V56.6907H183.498V62.462C183.498 64.4859 182.818 65.1816 181.663 65.1816C180.509 65.1816 179.877 64.4859 179.877 62.462V56.6907H177.552V62.2248ZM187.91 67H190.235V61.7031C190.741 61.2129 191.104 60.9441 191.689 60.9441C192.354 60.9441 192.654 61.292 192.654 62.4304V67H194.978V62.13C194.978 60.1693 194.251 58.9676 192.543 58.9676C191.484 58.9676 190.693 59.521 190.029 60.1535H189.966L189.808 59.1574H187.91V67ZM198.113 58.0031C198.904 58.0031 199.457 57.4971 199.457 56.7856C199.457 56.0741 198.904 55.5839 198.113 55.5839C197.338 55.5839 196.769 56.0741 196.769 56.7856C196.769 57.4971 197.338 58.0031 198.113 58.0031ZM196.959 67H199.283V59.1574H196.959V67ZM203.131 67H205.819L208.381 59.1574H206.151L205.124 62.8573C204.918 63.6321 204.713 64.4543 204.523 65.2765H204.46C204.254 64.4543 204.048 63.6321 203.843 62.8573L202.831 59.1574H200.491L203.131 67ZM209.023 63.0787C209.023 65.6718 210.747 67.1897 212.992 67.1897C213.925 67.1897 214.968 66.8577 215.775 66.3043L215 64.897C214.431 65.2449 213.893 65.4188 213.308 65.4188C212.265 65.4188 211.474 64.897 211.269 63.7112H215.965C216.012 63.5214 216.059 63.1419 216.059 62.7308C216.059 60.5962 214.953 58.9676 212.723 58.9676C210.842 58.9676 209.023 60.533 209.023 63.0787ZM211.253 62.2723C211.411 61.2287 212.043 60.7385 212.771 60.7385C213.704 60.7385 214.083 61.371 214.083 62.2723H211.253ZM217.666 67H219.99V62.4462C220.401 61.3868 221.128 61.0073 221.713 61.0073C222.045 61.0073 222.283 61.0548 222.567 61.1338L222.947 59.1257C222.725 59.0309 222.457 58.9676 222.014 58.9676C221.207 58.9676 220.354 59.4736 219.784 60.533H219.721L219.563 59.1574H217.666V67ZM223.115 66.0987C223.906 66.747 225.092 67.1897 226.12 67.1897C228.223 67.1897 229.345 66.0829 229.345 64.6599C229.345 63.221 228.223 62.6676 227.227 62.3039C226.42 62.0035 225.693 61.8137 225.693 61.3078C225.693 60.9125 225.977 60.6911 226.578 60.6911C227.132 60.6911 227.669 60.9441 228.239 61.3552L229.282 59.9638C228.602 59.4578 227.717 58.9676 226.515 58.9676C224.697 58.9676 223.511 59.9638 223.511 61.4184C223.511 62.715 224.633 63.3633 225.582 63.727C226.389 64.0432 227.179 64.2804 227.179 64.8022C227.179 65.2133 226.879 65.4663 226.183 65.4663C225.519 65.4663 224.871 65.1816 224.159 64.644L223.115 66.0987ZM231.976 58.0031C232.766 58.0031 233.32 57.4971 233.32 56.7856C233.32 56.0741 232.766 55.5839 231.976 55.5839C231.201 55.5839 230.632 56.0741 230.632 56.7856C230.632 57.4971 231.201 58.0031 231.976 58.0031ZM230.822 67H233.146V59.1574H230.822V67ZM235.508 64.1539C235.508 65.9722 236.267 67.1897 238.211 67.1897C238.97 67.1897 239.54 67.0316 239.951 66.9051L239.587 65.2133C239.381 65.2923 239.097 65.3714 238.844 65.3714C238.227 65.3714 237.832 65.0077 237.832 64.1223V60.9757H239.714V59.1574H237.832V57.0702H235.903L235.634 59.1574L234.432 59.2522V60.9757H235.508V64.1539ZM241.418 68.1384L241.007 69.9094C241.323 70.0042 241.64 70.0675 242.114 70.0675C243.964 70.0675 244.802 69.0555 245.545 67.0791L248.265 59.1574H246.035L245.087 62.5253C244.897 63.2684 244.723 64.0116 244.549 64.7547H244.486C244.28 63.98 244.09 63.2368 243.869 62.5253L242.746 59.1574H240.406L243.426 66.7944L243.316 67.2056C243.11 67.8222 242.715 68.2333 241.94 68.2333C241.766 68.2333 241.561 68.1701 241.418 68.1384ZM252.32 63.0787C252.32 65.6876 254.154 67.1897 256.147 67.1897C258.123 67.1897 259.957 65.6876 259.957 63.0787C259.957 60.4697 258.123 58.9676 256.147 58.9676C254.154 58.9676 252.32 60.4697 252.32 63.0787ZM254.708 63.0787C254.708 61.7189 255.182 60.8492 256.147 60.8492C257.095 60.8492 257.586 61.7189 257.586 63.0787C257.586 64.4385 257.095 65.3081 256.147 65.3081C255.182 65.3081 254.708 64.4385 254.708 63.0787ZM261.549 67H263.874V61.7031C264.38 61.2129 264.743 60.9441 265.328 60.9441C265.993 60.9441 266.293 61.292 266.293 62.4304V67H268.617V62.13C268.617 60.1693 267.89 58.9676 266.182 58.9676C265.123 58.9676 264.332 59.521 263.668 60.1535H263.605L263.447 59.1574H261.549V67ZM270.598 64.565C270.598 66.1462 271.136 67.1897 272.733 67.1897C273.254 67.1897 273.65 67.1107 273.903 67L273.618 65.2765C273.492 65.3081 273.428 65.3081 273.333 65.3081C273.144 65.3081 272.922 65.15 272.922 64.6599V55.916H270.598V64.565ZM276.277 58.0031C277.067 58.0031 277.621 57.4971 277.621 56.7856C277.621 56.0741 277.067 55.5839 276.277 55.5839C275.502 55.5839 274.933 56.0741 274.933 56.7856C274.933 57.4971 275.502 58.0031 276.277 58.0031ZM275.122 67H277.447V59.1574H275.122V67ZM279.492 67H281.816V61.7031C282.322 61.2129 282.686 60.9441 283.271 60.9441C283.935 60.9441 284.236 61.292 284.236 62.4304V67H286.56V62.13C286.56 60.1693 285.833 58.9676 284.125 58.9676C283.066 58.9676 282.275 59.521 281.611 60.1535H281.548L281.39 59.1574H279.492V67ZM288.082 63.0787C288.082 65.6718 289.806 67.1897 292.051 67.1897C292.984 67.1897 294.027 66.8577 294.834 66.3043L294.059 64.897C293.49 65.2449 292.952 65.4188 292.367 65.4188C291.323 65.4188 290.533 64.897 290.327 63.7112H295.023C295.071 63.5214 295.118 63.1419 295.118 62.7308C295.118 60.5962 294.011 58.9676 291.782 58.9676C289.9 58.9676 288.082 60.533 288.082 63.0787ZM290.312 62.2723C290.47 61.2287 291.102 60.7385 291.829 60.7385C292.762 60.7385 293.142 61.371 293.142 62.2723H290.312ZM297.626 63.3475H299.144L299.476 58.5091L299.555 56.4061H297.215L297.294 58.5091L297.626 63.3475ZM296.977 65.7351C296.977 66.5573 297.578 67.1897 298.385 67.1897C299.191 67.1897 299.792 66.5573 299.792 65.7351C299.792 64.897 299.191 64.2646 298.385 64.2646C297.578 64.2646 296.977 64.897 296.977 65.7351Z" fill="white"/>
<path d="M123.252 38.8729H109.976L107.444 45H100.663L113.408 16.4071H119.943L132.728 45H125.784L123.252 38.8729ZM121.169 33.8488L116.635 22.9017L112.101 33.8488H121.169ZM145.666 45.3268C143.324 45.3268 141.214 44.8502 139.335 43.8971C137.483 42.9168 136.026 41.5688 134.964 39.8533C133.93 38.1377 133.412 36.1907 133.412 34.0121C133.412 31.8336 133.93 29.8866 134.964 28.171C136.026 26.4554 137.483 25.1211 139.335 24.168C141.214 23.1877 143.324 22.6975 145.666 22.6975C147.981 22.6975 149.996 23.1877 151.712 24.168C153.454 25.1211 154.721 26.4963 155.51 28.2936L150.568 30.9486C149.424 28.9335 147.777 27.9259 145.625 27.9259C143.964 27.9259 142.589 28.4706 141.5 29.5598C140.411 30.6491 139.866 32.1332 139.866 34.0121C139.866 35.8911 140.411 37.3752 141.5 38.4645C142.589 39.5537 143.964 40.0984 145.625 40.0984C147.804 40.0984 149.451 39.0908 150.568 37.0757L155.51 39.7716C154.721 41.5144 153.454 42.876 151.712 43.8563C149.996 44.8366 147.981 45.3268 145.666 45.3268ZM168.043 22.6975C171.447 22.6975 174.061 23.5144 175.886 25.1483C177.71 26.755 178.623 29.1922 178.623 32.46V45H172.659V42.2632C171.461 44.3056 169.228 45.3268 165.96 45.3268C164.272 45.3268 162.801 45.0408 161.548 44.469C160.323 43.8971 159.384 43.1074 158.73 42.0999C158.076 41.0923 157.75 39.9486 157.75 38.6687C157.75 36.6264 158.512 35.0197 160.037 33.8488C161.589 32.6778 163.972 32.0923 167.185 32.0923H172.25C172.25 30.7035 171.828 29.6415 170.984 28.9063C170.14 28.1438 168.874 27.7625 167.185 27.7625C166.014 27.7625 164.857 27.9532 163.713 28.3344C162.597 28.6884 161.644 29.1786 160.854 29.8049L158.567 25.3526C159.765 24.5084 161.194 23.8548 162.856 23.3919C164.544 22.929 166.273 22.6975 168.043 22.6975ZM167.553 41.0378C168.642 41.0378 169.609 40.7928 170.453 40.3026C171.297 39.7852 171.896 39.0363 172.25 38.056V35.8094H167.88C165.266 35.8094 163.958 36.6672 163.958 38.3828C163.958 39.1997 164.272 39.8533 164.898 40.3434C165.551 40.8064 166.436 41.0378 167.553 41.0378ZM207.013 14.6915V45H200.927V42.4675C199.348 44.3737 197.06 45.3268 194.065 45.3268C191.995 45.3268 190.116 44.8638 188.428 43.938C186.767 43.0121 185.46 41.6914 184.506 39.9758C183.553 38.2602 183.077 36.2723 183.077 34.0121C183.077 31.7519 183.553 29.764 184.506 28.0485C185.46 26.3329 186.767 25.0122 188.428 24.0863C190.116 23.1604 191.995 22.6975 194.065 22.6975C196.869 22.6975 199.062 23.5825 200.641 25.3526V14.6915H207.013ZM195.167 40.0984C196.774 40.0984 198.108 39.5537 199.17 38.4645C200.233 37.348 200.764 35.8639 200.764 34.0121C200.764 32.1604 200.233 30.6899 199.17 29.6007C198.108 28.4842 196.774 27.9259 195.167 27.9259C193.534 27.9259 192.186 28.4842 191.124 29.6007C190.062 30.6899 189.531 32.1604 189.531 34.0121C189.531 35.8639 190.062 37.348 191.124 38.4645C192.186 39.5537 193.534 40.0984 195.167 40.0984ZM222.796 45.2042C220.726 45.2042 218.861 44.7413 217.2 43.8154C215.539 42.8623 214.231 41.5552 213.278 39.8941C212.325 38.233 211.849 36.354 211.849 34.2572C211.849 32.1604 212.325 30.2814 213.278 28.6203C214.231 26.9592 215.539 25.6657 217.2 24.7399C218.861 23.814 220.726 23.3511 222.796 23.3511C224.865 23.3511 226.731 23.814 228.392 24.7399C230.053 25.6657 231.346 26.9592 232.272 28.6203C233.225 30.2814 233.702 32.1604 233.702 34.2572C233.702 36.354 233.225 38.233 232.272 39.8941C231.346 41.5552 230.053 42.8623 228.392 43.8154C226.731 44.7413 224.865 45.2042 222.796 45.2042ZM222.796 42.6309C224.321 42.6309 225.682 42.2905 226.88 41.6097C228.106 40.9017 229.059 39.9077 229.74 38.6279C230.421 37.348 230.761 35.8911 230.761 34.2572C230.761 32.6233 230.421 31.1665 229.74 29.8866C229.059 28.6067 228.106 27.6264 226.88 26.9456C225.682 26.2376 224.321 25.8836 222.796 25.8836C221.271 25.8836 219.896 26.2376 218.67 26.9456C217.472 27.6264 216.519 28.6067 215.811 29.8866C215.13 31.1665 214.79 32.6233 214.79 34.2572C214.79 35.8911 215.13 37.348 215.811 38.6279C216.519 39.9077 217.472 40.9017 218.67 41.6097C219.896 42.2905 221.271 42.6309 222.796 42.6309ZM250.57 23.3511C253.266 23.3511 255.403 24.1408 256.983 25.7202C258.589 27.2724 259.393 29.5462 259.393 32.5416V45H256.493V32.8276C256.493 30.5946 255.934 28.8926 254.818 27.7217C253.701 26.5507 252.108 25.9653 250.039 25.9653C247.724 25.9653 245.886 26.6597 244.524 28.0485C243.19 29.41 242.523 31.3026 242.523 33.7262V45H239.623V23.5144H242.4V27.4766C243.19 26.1695 244.279 25.1619 245.668 24.4539C247.084 23.7187 248.718 23.3511 250.57 23.3511ZM267.266 14.6915H270.167V45H267.266V14.6915ZM278.236 23.5144H281.136V45H278.236V23.5144ZM279.707 18.817C279.107 18.817 278.604 18.6128 278.195 18.2043C277.787 17.7959 277.583 17.3057 277.583 16.7338C277.583 16.1892 277.787 15.7127 278.195 15.3042C278.604 14.8957 279.107 14.6915 279.707 14.6915C280.306 14.6915 280.809 14.8957 281.218 15.3042C281.626 15.6854 281.831 16.1484 281.831 16.693C281.831 17.2921 281.626 17.7959 281.218 18.2043C280.809 18.6128 280.306 18.817 279.707 18.817ZM300.153 23.3511C302.849 23.3511 304.986 24.1408 306.566 25.7202C308.172 27.2724 308.976 29.5462 308.976 32.5416V45H306.076V32.8276C306.076 30.5946 305.517 28.8926 304.401 27.7217C303.284 26.5507 301.691 25.9653 299.622 25.9653C297.307 25.9653 295.469 26.6597 294.107 28.0485C292.773 29.41 292.106 31.3026 292.106 33.7262V45H289.206V23.5144H291.983V27.4766C292.773 26.1695 293.862 25.1619 295.251 24.4539C296.667 23.7187 298.301 23.3511 300.153 23.3511ZM335.637 35.1559H317.664C317.828 37.3888 318.685 39.1997 320.238 40.5885C321.79 41.9501 323.751 42.6309 326.12 42.6309C327.454 42.6309 328.679 42.3994 329.796 41.9365C330.912 41.4463 331.879 40.7383 332.696 39.8124L334.33 41.6914C333.377 42.8351 332.179 43.7065 330.735 44.3056C329.319 44.9047 327.754 45.2042 326.038 45.2042C323.832 45.2042 321.872 44.7413 320.156 43.8154C318.468 42.8623 317.147 41.5552 316.194 39.8941C315.241 38.233 314.764 36.354 314.764 34.2572C314.764 32.1604 315.213 30.2814 316.112 28.6203C317.038 26.9592 318.291 25.6657 319.87 24.7399C321.477 23.814 323.274 23.3511 325.262 23.3511C327.25 23.3511 329.033 23.814 330.613 24.7399C332.192 25.6657 333.431 26.9592 334.33 28.6203C335.229 30.2542 335.678 32.1332 335.678 34.2572L335.637 35.1559ZM325.262 25.8427C323.192 25.8427 321.449 26.5099 320.033 27.8442C318.645 29.1513 317.855 30.8669 317.664 32.991H332.9C332.71 30.8669 331.906 29.1513 330.49 27.8442C329.101 26.5099 327.359 25.8427 325.262 25.8427Z" fill="white"/>
</g>
<defs>
<filter id="filter0_d" x="96.6633" y="14.6915" width="243.014" height="63.376" filterUnits="userSpaceOnUse" color-interpolation-filters="sRGB">
<feFlood flood-opacity="0" result="BackgroundImageFix"/>
<feColorMatrix in="SourceAlpha" type="matrix" values="0 0 0 0 0 0 0 0 0 0 0 0 0 0 0 0 0 0 127 0"/>
<feOffset dy="4"/>
<feGaussianBlur stdDeviation="2"/>
<feColorMatrix type="matrix" values="0 0 0 0 0 0 0 0 0 0 0 0 0 0 0 0 0 0 0.1 0"/>
<feBlend mode="normal" in2="BackgroundImageFix" result="effect1_dropShadow"/>
<feBlend mode="normal" in="SourceGraphic" in2="effect1_dropShadow" result="shape"/>
</filter>
</defs>
</svg>
